{"title":"Stone 2010 DVDrip English Klam","uid":6506730,"size":1286170398,"categoryP":"video","categoryS":"movies","magnet":"?xt=urn:btih:17ec1b525ee3865e10aec891f452f4a3221d08b9&amp;dn=Stone+2010+DVDrip+English+Klam&amp;tr=udp%3A%2F%2Ftracker.openbittorrent.com%3A80&amp;tr=udp%3A%2F%2Fopen.demonii.com%3A1337&amp;tr=udp%3A%2F%2Ftracker.coppersurfer.tk%3A6969&amp;tr=udp%3A%2F%2Fexodus.desync.com%3A6969","seeders":0,"leechers":1,"uploader":"Klambake","files":-1,"time":1309450482,"description":"With: Robert De Niro, Edward Norton and Milla Jovovich\n\nEen veroordeelde brandstichter krijgt het aan de stok met zijn reclasseringsambtenaar. Om zijn vrijheid veilig te stellen speelt hij enkele psychologische spelletjes met deze man, maar wanneer de reclasseringsambtenaar zelf een affaire begint met de vrouw van de veroordeelde loopt het pas echt uit de hand.\n\nA convicted arsonist looks to manipulate a parole officer into a plan to secure his parole by placing his beautiful wife in the lawman's path. \n &lt;a href=&quot;\nhttp://www.imdb.com/title/tt1423995&quot; rel=&quot;nofollow&quot; target=&quot;_NEW&quot;&gt;\nhttp://www.imdb.com/title/tt1423995&lt;/a&gt;\n\n------------------ Dutch Friends ------------------\nYou can find my Friends at: http://www.Film-Test.nl \n------ They got my dutchs subs ---- and more ------\n\nGeneral:\n\nComplete name                    : Stone\\Stone.avi\nFormat                           : AVI\nFormat/Info                      : Audio Video Interleave\nFile size                        : 1.20 GiB\nDuration                         : 1h 40mn\nOverall bit rate                 : 1 703 Kbps\n\nVideo:\n\nFormat                           : MPEG-4 Visual\nFormat profile                   : Simple@L3\nFormat settings, BVOP            : No\nFormat settings, QPel            : No\nFormat settings, GMC             : No warppoints\nFormat settings, Matrix          : Default (H.263)\nCodec ID                         : XVID\nCodec ID/Hint                    : XviD\nDuration                         : 1h 40mn\nBit rate                         : 1 245 Kbps\nWidth                            : 720 pixels\nHeight                           : 304 pixels\nDisplay aspect ratio             : 2.35:1\nFrame rate                       : 25.000 fps\nColor space                      : YUV\nChroma subsampling               : 4:2:0\nBit depth                        : 8 bits\nScan type                        : Progressive\nBits/(Pixel*Frame)               : 0.227\nStream size                      : 896 MiB (73%)\nWriting library                  : XviD 1.1.2 (UTC 2006-11-01)\n\nAudio:\n\nFormat                           : AC-3\nFormat/Info                      : Audio Coding 3\nMode extension                   : CM (complete main)\nCodec ID                         : 2000\nDuration                         : 1h 40mn\nBit rate mode                    : Constant\nBit rate                         : 448 Kbps\nChannel(s)                       : 6 channels\nChannel positions                : Front: L C R, Side: L R, LFE\nSampling rate                    : 48.0 KHz\nBit depth                        : 16 bits\nStream size                      : 323 MiB (26%)\nAlignment                        : Aligned on interleaves\nInterleave, duration             : 32 ms (0.80 video frame)\nInterleave, preload duration     : 32 ms\n\n\n\n\n\n\n","torrent":{"xt":"urn:btih:17ec1b525ee3865e10aec891f452f4a3221d08b9","amp;dn":"Stone+2010+DVDrip+English+Klam","amp;tr":["udp%3A%2F%2Ftracker.openbittorrent.com%3A80","udp%3A%2F%2Fopen.demonii.com%3A1337","udp%3A%2F%2Ftracker.coppersurfer.tk%3A6969","udp%3A%2F%2Fexodus.desync.com%3A6969"],"infoHash":"17ec1b525ee3865e10aec891f452f4a3221d08b9","infoHashBuffer":{"type":"Buffer","data":[23,236,27,82,94,227,134,94,16,174,200,145,244,82,244,163,34,29,8,185]},"announce":[],"urlList":[]}}